Coordinates
version=1
nRows=10
nColumns=22
inDegrees=yes

Units are S.I. units (second, meters, Newtons, ...)
If the header above contains a line with 'inDegrees', this indicates whether rotational values are in degrees (yes) or radians (no).

endheader
time	pelvis_tilt	pelvis_list	pelvis_rotation	pelvis_tx	pelvis_ty	pelvis_tz	hip_flexion_r	hip_adduction_r	hip_rotation_r	knee_angle_r	ankle_angle_r	subtalar_angle_r	hip_flexion_l	hip_adduction_l	hip_rotation_l	knee_angle_l	ankle_angle_l	subtalar_angle_l	lumbar_extension	lumbar_bending	lumbar_rotation
      1.50000000	     -2.27462064	     -3.60584316	     -9.08666326	     -1.31896139	      1.02158123	     -0.38260016	      4.74841568	      6.68393072	     -1.58065330	    -12.14706896	      8.67224306	     -5.23226496	      3.52687448	     -3.13508519	     -7.79856413	    -10.98633921	     11.58915587	     -1.22687900	     -9.91461574	      2.68252994	      1.63806894
      1.51000000	     -2.25431752	     -3.53553179	     -9.11741660	     -1.31881041	      1.02150784	     -0.38226262	      4.95181193	      6.62614941	     -1.57542142	    -12.56732939	      8.83846017	     -5.24949857	      3.51403819	     -3.08052757	     -7.83230190	    -11.02043286	     11.62810163	     -1.16237047	     -9.98062993	      2.62465255	      1.63031440
      1.52000000	     -2.29043284	     -3.44428721	     -9.16340286	     -1.31873158	      1.02132530	     -0.38184836	      5.24557100	      6.56356702	     -1.52341475	    -13.03199544	      9.00028587	     -5.26593238	      3.59323377	     -3.02036785	     -7.84978728	    -11.10686149	     11.64765328	     -1.03925750	     -9.98788333	      2.54067341	      1.65650680
      1.53000000	     -2.27264208	     -3.36005139	     -9.20252417	     -1.31860924	      1.02120100	     -0.38142403	      5.48231642	      6.50084041	     -1.48217369	    -13.50334421	      9.17657649	     -5.29437776	      3.60440500	     -2.95783231	     -7.89093258	    -11.17428463	     11.70599130	     -0.98029663	    -10.06052766	      2.46335383	      1.65731227
      1.54000000	     -2.32533803	     -3.25203007	     -9.24677511	     -1.31857724	      1.02094290	     -0.38093978	      5.81811458	      6.43514286	     -1.39385074	    -14.00446631	      9.34167113	     -5.34504893	      3.72989498	     -2.88806629	     -7.90611855	    -11.30066067	     11.73577570	     -0.87777680	    -10.05924198	      2.36158757	      1.68723709
      1.55000000	     -2.32934231	     -3.14578230	     -9.27853346	     -1.31852004	      1.02073498	     -0.38043233	      6.09533668	      6.36596530	     -1.31545487	    -14.49614909	      9.52762685	     -5.41335085	      3.80239476	     -2.81286870	     -7.91578031	    -11.42512523	     11.78247005	     -0.82694146	    -10.11789229	      2.25327361	      1.69685593
      1.56000000	     -2.34099431	     -3.03739858	     -9.30010545	     -1.31845954	      1.02049615	     -0.37988900	      6.37622011	      6.30139705	     -1.23878690	    -14.98016340	      9.70608213	     -5.50519032	      3.88980516	     -2.73928769	     -7.91681969	    -11.55809080	     11.83660169	     -0.78559612	    -10.16907984	      2.14274149	      1.69793855
      1.57000000	     -2.34679947	     -2.93093647	     -9.31224716	     -1.31837791	      1.02025199	     -0.37931097	      6.63611787	      6.24183259	     -1.16330153	    -15.44008604	      9.87973456	     -5.61558480	      3.97276123	     -2.66882479	     -7.90665626	    -11.69509443	     11.89299319	     -0.75141584	    -10.22755810	      2.03244743	      1.68657871
      1.58000000	     -2.28730397	     -2.85071954	     -9.30733899	     -1.31820283	      1.02011110	     -0.37872456	      6.78502252	      6.19727256	     -1.11751763	    -15.84052786	     10.02217103	     -5.67961222	      3.97684984	     -2.61451028	     -7.88304991	    -11.83191042	     11.99198052	     -0.74145509	    -10.36174777	      1.94411395	      1.68545672
      1.59000000	     -2.27633707	     -2.74306879	     -9.30721771	     -1.31796378	      1.01989014	     -0.37808575	      6.97249326	      6.13791581	     -1.03672250	    -16.22279520	     10.22141740	     -5.80986936	      4.02087552	     -2.54072494	     -7.87911687	    -11.94136172	     12.03451773	     -0.70650459	    -10.42290763	      1.83777469	      1.63903585
